<svg xmlns="http://www.w3.org/2000/svg" viewBox="0 0 750 500"><g id="freepik--background-simple--inject-2"><path d="M699.46,265.47s10-178-141-227-227-13-275,33-64,76-119,82-106,16-132,83,7,120,57,153,108-2,154,19,75,56,169,60,97-23,145-65S690.46,405.47,699.46,265.47Z" style="fill:#0052A1"></path><path d="M699.46,265.47s10-178-141-227-227-13-275,33-64,76-119,82-106,16-132,83,7,120,57,153,108-2,154,19,75,56,169,60,97-23,145-65S690.46,405.47,699.46,265.47Z" style="fill:#fff;opacity:0.7000000000000001"></path></g><g id="freepik--Device--inject-2"><path d="M155.51,80.75H610.18A10.46,10.46,0,0,1,620.63,91.2V389.44a0,0,0,0,1,0,0H145a0,0,0,0,1,0,0V91.2A10.46,10.46,0,0,1,155.51,80.75Z" style="fill:#0052A1;stroke:#263238;stroke-linecap:round;stroke-linejoin:round"></path><rect x="220.51" y="374.58" width="326.85" height="16.1" style="fill:#263238;stroke:#263238;stroke-linecap:round;stroke-linejoin:round"></rect><rect x="220.51" y="382.33" width="326.85" height="8.35" style="fill:#fff;stroke:#263238;stroke-linecap:round;stroke-linejoin:round"></rect><path d="M106.59,400.23s5.37,6.56,21.47,11.93H639.8s11.93-3,17.3-11.34Z" style="fill:#263238;stroke:#263238;stroke-linecap:round;stroke-linejoin:round"></path><rect x="105.5" y="388.48" width="552.76" height="12.54" rx="1.89" style="fill:#0052A1;stroke:#263238;stroke-linecap:round;stroke-linejoin:round"></rect><circle cx="382.74" cy="90.08" r="4.17" style="fill:#263238"></circle><rect x="164.34" y="104.86" width="437" height="246.96" style="fill:#fff;stroke:#263238;stroke-linecap:round;stroke-linejoin:round"></rect><rect x="164.34" y="104.86" width="437" height="14.95" style="fill:#c9c9c9;stroke:#263238;stroke-linecap:round;stroke-linejoin:round"></rect></g><g id="freepik--Table--inject-2"><line x1="23.22" y1="412.16" x2="719.32" y2="412.16" style="fill:none;stroke:#263238;stroke-linecap:round;stroke-linejoin:round"></line></g><g id="freepik--Video--inject-2"><rect x="385.86" y="233.24" width="180.49" height="101.98" style="fill:none;stroke:#263238;stroke-linecap:round;stroke-linejoin:round"></rect><rect x="385.86" y="322.96" width="180.49" height="12.26" style="fill:none;stroke:#263238;stroke-linecap:round;stroke-linejoin:round"></rect><rect x="385.86" y="327.45" width="180.49" height="3.28" style="fill:none;stroke:#263238;stroke-linecap:round;stroke-linejoin:round"></rect><circle cx="477.07" cy="278.97" r="19.08" style="fill:none;stroke:#263238;stroke-linecap:round;stroke-linejoin:round"></circle><polygon points="491.73 279.05 467.18 264.88 467.18 293.23 491.73 279.05" style="fill:none;stroke:#263238;stroke-linecap:round;stroke-linejoin:round"></polygon></g><g id="freepik--Picture--inject-2"><rect x="386.16" y="137.74" width="180.03" height="85.2" style="fill:none;stroke:#263238;stroke-linecap:round;stroke-linejoin:round"></rect><polyline points="386.16 222.94 451.14 172.27 486.31 191.94 528.04 154.98 566.19 179.42" style="fill:none;stroke:#263238;stroke-linecap:round;stroke-linejoin:round"></polyline><circle cx="410.01" cy="161.54" r="13.11" style="fill:none;stroke:#263238;stroke-linecap:round;stroke-linejoin:round"></circle></g><g id="freepik--Chart--inject-2"><rect x="200.77" y="237.24" width="13.11" height="95.38" style="fill:none;stroke:#263238;stroke-linecap:round;stroke-linejoin:round"></rect><rect x="219.85" y="280.17" width="13.11" height="52.46" style="fill:none;stroke:#263238;stroke-linecap:round;stroke-linejoin:round"></rect><rect x="238.92" y="295.07" width="13.11" height="37.56" style="fill:none;stroke:#263238;stroke-linecap:round;stroke-linejoin:round"></rect><rect x="258" y="265.26" width="13.11" height="67.36" style="fill:none;stroke:#263238;stroke-linecap:round;stroke-linejoin:round"></rect><rect x="277.07" y="271.82" width="13.11" height="60.8" style="fill:none;stroke:#263238;stroke-linecap:round;stroke-linejoin:round"></rect><rect x="296.15" y="319.51" width="13.11" height="13.11" style="fill:none;stroke:#263238;stroke-linecap:round;stroke-linejoin:round"></rect><line x1="317.61" y1="244.4" x2="355.17" y2="244.4" style="fill:none;stroke:#263238;stroke-linecap:round;stroke-linejoin:round"></line><line x1="317.61" y1="256.92" x2="355.17" y2="256.92" style="fill:none;stroke:#263238;stroke-linecap:round;stroke-linejoin:round"></line><line x1="317.61" y1="269.43" x2="355.17" y2="269.43" style="fill:none;stroke:#263238;stroke-linecap:round;stroke-linejoin:round"></line><line x1="317.61" y1="281.95" x2="355.17" y2="281.95" style="fill:none;stroke:#263238;stroke-linecap:round;stroke-linejoin:round"></line><line x1="317.61" y1="294.47" x2="355.17" y2="294.47" style="fill:none;stroke:#263238;stroke-linecap:round;stroke-linejoin:round"></line><line x1="317.61" y1="306.99" x2="355.17" y2="306.99" style="fill:none;stroke:#263238;stroke-linecap:round;stroke-linejoin:round"></line><line x1="317.61" y1="319.51" x2="355.17" y2="319.51" style="fill:none;stroke:#263238;stroke-linecap:round;stroke-linejoin:round"></line><line x1="317.61" y1="332.03" x2="355.17" y2="332.03" style="fill:none;stroke:#263238;stroke-linecap:round;stroke-linejoin:round"></line></g><g id="freepik--code-3--inject-2"><path d="M580.32,211H519.88c-3.38,0-6.15,3.4-6.15,7.56V258.9c0,4.15,2.77,7.55,6.15,7.55h14.48l-9.47,20.87,25.25-20.87h30.18c3.38,0,6.14-3.4,6.14-7.55V218.57C586.46,214.41,583.7,211,580.32,211Z" style="fill:#263238;stroke:#263238;stroke-linecap:round;stroke-linejoin:round"></path><path d="M539.62,251.52l-12.71-9v-4.76l12.71-9.07v4.81l-9.11,6.62,9.11,6.62Z" style="fill:#0052A1"></path><path d="M543.49,253.12l9.69-36h4.13l-9.73,36Z" style="fill:#0052A1"></path><path d="M561.18,251.52v-4.76l9.16-6.66-9.16-6.58v-4.81l12.76,9v4.76Z" style="fill:#0052A1"></path></g><g id="freepik--code-2--inject-2"><path d="M576.38,75.85H516c-3.38,0-6.15,3.4-6.15,7.55v40.33c0,4.16,2.77,7.56,6.15,7.56h14.47L521,152.15l25.26-20.86h30.17c3.38,0,6.15-3.4,6.15-7.56V83.4C582.53,79.25,579.76,75.85,576.38,75.85Z" style="fill:#263238;stroke:#263238;stroke-linecap:round;stroke-linejoin:round"></path><path d="M535.69,116.35l-12.72-9v-4.75l12.72-9.07v4.8L526.58,105l9.11,6.63Z" style="fill:#0052A1"></path><path d="M539.56,118l9.69-36h4.13l-9.73,36Z" style="fill:#0052A1"></path><path d="M557.25,116.35V111.6l9.16-6.67-9.16-6.58v-4.8l12.76,9v4.76Z" style="fill:#0052A1"></path></g><g id="freepik--code-1--inject-2"><path d="M338.89,180H278.45c-3.38,0-6.15,3.4-6.15,7.55V227.9c0,4.16,2.77,7.56,6.15,7.56h14.48l-9.47,20.86,25.25-20.86h30.18c3.38,0,6.14-3.4,6.14-7.56V187.57C345,183.42,342.27,180,338.89,180Z" style="fill:#263238;stroke:#263238;stroke-linecap:round;stroke-linejoin:round"></path><path d="M298.19,220.52l-12.71-9v-4.75l12.71-9.07v4.8l-9.11,6.62,9.11,6.63Z" style="fill:#0052A1"></path><path d="M302.06,222.12l9.69-36h4.14l-9.74,36Z" style="fill:#0052A1"></path><path d="M319.75,220.52v-4.75l9.16-6.67-9.16-6.58v-4.8l12.76,9v4.76Z" style="fill:#0052A1"></path></g><g id="freepik--Mug--inject-2"><path d="M189.94,385.08h-.14c-.58-.05-5.7-.61-6.83-4-.87-2.63-.89-10,1.15-12.33,1.87-2.13,4.75-1.1,6-.26a1.5,1.5,0,0,1-1.66,2.5s-1.51-.93-2.09-.27c-1,1.12-1.33,7.1-.56,9.41.37,1.1,2.76,1.82,4.26,2a1.5,1.5,0,0,1-.14,3Z" style="fill:#263238"></path><rect x="189.09" y="366.05" width="18" height="22.11" style="fill:#263238;stroke:#263238;stroke-linecap:round;stroke-linejoin:round"></rect><path d="M193.54,363a9.38,9.38,0,0,1,1.07-7.05c2.13-3.42,6.4-4.06,6.19-10" style="fill:none;stroke:#263238;stroke-linecap:round;stroke-linejoin:round"></path><path d="M204.65,353.81a32.6,32.6,0,0,1-2.78,4.05,8.24,8.24,0,0,0-1.5,5.13" style="fill:none;stroke:#263238;stroke-linecap:round;stroke-linejoin:round"></path><path d="M206.57,350a13.58,13.58,0,0,0,.85-6.62" style="fill:none;stroke:#263238;stroke-linecap:round;stroke-linejoin:round"></path></g></svg>
